<svg width="136" height="22" viewBox="0 0 136 22" fill="none" xmlns="http://www.w3.org/2000/svg">
<path d="M5.30848 2.20342V9.82218L12.1559 9.41621L12.2912 9.59213L11.6552 10.7018C11.2943 10.6837 10.9199 10.6702 10.532 10.6612C10.1441 10.6522 9.73809 10.6477 9.31407 10.6477C8.7006 10.6477 8.06007 10.6567 7.39247 10.6747C6.73389 10.6928 6.03923 10.7198 5.30848 10.7559V18.4423C5.30848 18.8122 5.34005 19.128 5.4032 19.3896C5.47538 19.6512 5.59266 19.8723 5.75505 20.0527C5.91743 20.2331 6.13395 20.382 6.4046 20.4993C6.68427 20.6075 7.0316 20.6977 7.4466 20.7699L7.32481 21.0947C6.77449 21.0225 6.30085 20.9684 5.9039 20.9323C5.50695 20.8962 5.18217 20.8782 4.92957 20.8782C4.67696 20.8782 4.39278 20.8962 4.07702 20.9323C3.76127 20.9684 3.41394 21.0225 3.03503 21.0947L2.95383 20.9594C3.13426 20.6977 3.22448 20.2196 3.22448 19.5249V5.16702C3.22448 4.5716 3.19742 4.08443 3.14329 3.70552C3.08916 3.31759 2.98992 3.01086 2.84557 2.78532C2.70123 2.55075 2.49824 2.38836 2.23661 2.29815C1.98401 2.20793 1.65472 2.16282 1.24875 2.16282C1.1856 2.16282 1.11793 2.16282 1.04576 2.16282C0.982609 2.16282 0.914946 2.16733 0.842773 2.17636L0.788644 1.78392C3.35981 1.37794 6.19259 1.17496 9.28701 1.17496C10.8658 1.17496 12.5213 1.22909 14.2534 1.33735L14.3481 1.5674L13.0626 4.93697L12.6295 4.80165C12.7017 4.45883 12.7558 4.14307 12.7919 3.85438C12.828 3.56569 12.846 3.28601 12.846 3.01537C12.846 2.7357 12.81 2.47407 12.7378 2.23049C12.0612 2.16733 11.3936 2.12223 10.735 2.09516C10.0854 2.05907 9.43587 2.04103 8.78631 2.04103C7.60448 2.04103 6.4452 2.09516 5.30848 2.20342ZM27.2987 0.647191C30.3119 0.647191 32.6305 1.59897 34.2543 3.50253C35.8782 5.4061 36.6902 8.04041 36.6902 11.4055C36.6902 12.8309 36.4376 14.1706 35.9324 15.4246C35.4272 16.6786 34.746 17.7432 33.889 18.6183C33.0319 19.4934 32.0215 20.1835 30.8577 20.6887C29.7029 21.1849 28.4895 21.433 27.2175 21.433C25.8823 21.433 24.6418 21.1984 23.4961 20.7293C22.3503 20.2512 21.3534 19.5745 20.5054 18.6995C19.6664 17.8244 19.0078 16.7237 18.5297 15.3975C18.0515 14.0623 17.8124 12.5828 17.8124 10.9589C17.8124 9.52447 18.065 8.16671 18.5703 6.88564C19.0845 5.60457 19.7656 4.51296 20.6137 3.61079C21.4707 2.69961 22.4811 1.97788 23.6449 1.4456C24.8087 0.913329 26.0266 0.647191 27.2987 0.647191ZM20.0859 10.8236C20.0859 12.1498 20.2257 13.3677 20.5054 14.4773C20.7941 15.578 21.1775 16.5072 21.6557 17.265C22.1338 18.0228 22.6931 18.6634 23.3337 19.1866C23.9832 19.7099 24.6644 20.0933 25.3771 20.3369C26.0898 20.5714 26.8296 20.6887 27.5964 20.6887C28.706 20.6887 29.6984 20.4451 30.5735 19.958C31.4576 19.4708 32.1749 18.8077 32.7252 17.9687C33.2755 17.1207 33.695 16.1508 33.9837 15.0592C34.2724 13.9676 34.4167 12.7948 34.4167 11.5408C34.4167 9.90788 34.2092 8.43736 33.7942 7.12923C33.3883 5.82109 32.8379 4.76556 32.1433 3.96264C31.4486 3.15069 30.6592 2.53271 29.7751 2.10869C28.9 1.68468 27.9708 1.47267 26.9874 1.47267C25.8778 1.47267 24.8764 1.72979 23.9832 2.24402C23.0991 2.74923 22.3774 3.43487 21.818 4.30095C21.2587 5.16702 20.8302 6.1594 20.5325 7.27808C20.2347 8.38774 20.0859 9.56957 20.0859 10.8236ZM45.784 10.3499V9.90337C46.6861 9.80414 47.4575 9.6237 48.098 9.36208C48.7386 9.10045 49.2663 8.76665 49.6813 8.36068C50.0963 7.9547 50.3985 7.47656 50.588 6.92624C50.7865 6.37592 50.8857 5.76245 50.8857 5.08583C50.8586 4.54453 50.7774 4.08894 50.6421 3.71905C50.5158 3.34917 50.2993 3.05145 49.9926 2.82591C49.6858 2.59135 49.2753 2.42445 48.7611 2.32521C48.2559 2.21695 47.6109 2.16282 46.826 2.16282C46.5373 2.16282 46.2305 2.17184 45.9058 2.18989C45.59 2.19891 45.2472 2.21244 44.8773 2.23049C44.9314 2.447 44.9585 2.67706 44.9585 2.92064V18.4423C44.9585 18.8122 44.9901 19.128 45.0532 19.3896C45.1254 19.6512 45.2427 19.8723 45.4051 20.0527C45.5675 20.2331 45.784 20.382 46.0546 20.4993C46.3343 20.6075 46.6816 20.6977 47.0966 20.7699L46.9748 21.0947C46.4245 21.0225 45.9509 20.9684 45.5539 20.9323C45.157 20.8962 44.8277 20.8782 44.5661 20.8782C44.3225 20.8782 44.0428 20.8962 43.727 20.9323C43.4113 20.9684 43.064 21.0225 42.685 21.0947L42.6039 20.9594C42.7843 20.6977 42.8745 20.2196 42.8745 19.5249V5.30235C42.8745 4.70692 42.8474 4.21073 42.7933 3.81378C42.7392 3.40781 42.6399 3.08303 42.4956 2.83944C42.3512 2.59586 42.1483 2.42445 41.8866 2.32521C41.625 2.21695 41.1604 2.16733 40.4928 2.17636L40.4387 1.78392C41.0431 1.70272 41.5754 1.63055 42.0355 1.5674C42.5046 1.50424 42.9467 1.45012 43.3617 1.40501C43.7857 1.35088 44.2007 1.30577 44.6067 1.26968C45.0216 1.2336 45.4186 1.20653 45.7975 1.18849C46.1764 1.16142 46.4786 1.14338 46.7042 1.13436C46.9387 1.12534 47.1598 1.12083 47.3673 1.12083C48.1882 1.12083 48.9461 1.18398 49.6407 1.31028C50.3444 1.42756 50.9489 1.63957 51.4541 1.9463C51.9683 2.24402 52.3652 2.64999 52.6449 3.16422C52.9336 3.67846 53.078 4.32801 53.078 5.11289C53.078 5.6993 52.9471 6.25413 52.6855 6.77738C52.4329 7.30064 52.0856 7.77878 51.6435 8.21182C51.2105 8.64486 50.7008 9.02828 50.1144 9.36208C49.537 9.68685 48.919 9.94848 48.2604 10.147V10.2958L53.7681 18.1582C54.2463 18.8528 54.8642 19.3896 55.6221 19.7685C56.3618 20.0843 56.8084 20.2692 56.9618 20.3233C57.1242 20.3775 57.3091 20.4406 57.5166 20.5128V20.7699C55.9198 20.7699 54.5801 20.9368 53.4975 21.2706L53.2945 21.1488C53.2945 21.0225 53.2178 20.8376 53.0644 20.594C52.9111 20.3414 52.7216 20.0617 52.4961 19.755C52.2795 19.4392 51.8871 18.8754 51.3187 18.0634C50.7504 17.2425 48.9055 14.6713 45.784 10.3499ZM58.5451 1.33735C59.8622 1.22006 61.1388 1.13887 62.3747 1.09376C63.6107 1.03963 64.8331 1.01257 66.042 1.01257C67.2509 1.01257 68.5636 1.04414 69.98 1.10729C71.3964 1.16142 72.9436 1.24713 74.6216 1.36441L74.784 1.64859L73.5119 4.93697L73.0654 4.80165C73.1285 4.48589 73.1736 4.19269 73.2007 3.92204C73.2368 3.64237 73.2548 3.38074 73.2548 3.13716C73.2548 2.80336 73.2277 2.50113 73.1736 2.23049C72.0279 2.15831 70.9949 2.10418 70.0747 2.0681C69.1635 2.03201 68.3516 2.00946 67.6388 2.00043V18.4423C67.6388 18.8122 67.6704 19.128 67.7336 19.3896C67.8057 19.6512 67.923 19.8723 68.0854 20.0527C68.2478 20.2331 68.4643 20.382 68.735 20.4993C69.0056 20.6075 69.3484 20.6977 69.7634 20.7699L69.6552 21.0947C69.1139 21.0225 68.6448 20.9684 68.2478 20.9323C67.8509 20.8962 67.5171 20.8782 67.2464 20.8782C66.9938 20.8782 66.7096 20.8962 66.3939 20.9323C66.0871 20.9684 65.7443 21.0225 65.3654 21.0947L65.2842 20.9594C65.4646 20.6977 65.5549 20.2196 65.5549 19.5249V2.00043C64.8692 2.00946 64.0663 2.03201 63.1461 2.0681C62.2259 2.10418 61.1749 2.15831 59.993 2.23049C59.9389 2.5282 59.9118 2.84396 59.9118 3.17776C59.9118 3.6559 59.975 4.1972 60.1013 4.80165L59.6547 4.93697L58.3827 1.64859L58.5451 1.33735ZM80.9683 2.81238V15.1675C80.9683 16.1599 81.063 16.9899 81.2525 17.6575C81.4419 18.316 81.7036 18.8438 82.0374 19.2407C82.3802 19.6377 82.7861 19.9219 83.2553 20.0933C83.7334 20.2557 84.2567 20.3369 84.825 20.3369C85.3663 20.3369 85.9257 20.2647 86.5031 20.1204C87.0895 19.967 87.6714 19.7595 88.2487 19.4979C88.8351 19.2272 89.4035 18.9115 89.9538 18.5506C90.5132 18.1807 91.0364 17.7838 91.5236 17.3597V5.30235C91.5236 4.70692 91.4965 4.21073 91.4424 3.81378C91.3883 3.40781 91.289 3.08303 91.1447 2.83944C91.0003 2.59586 90.7973 2.42445 90.5357 2.32521C90.2741 2.21695 89.9944 2.16282 89.6967 2.16282C89.399 2.16282 89.2141 2.16733 89.1419 2.17636L89.0877 1.91924C90.5583 1.47718 91.9702 1.25615 93.3234 1.25615C93.5129 1.7343 93.6076 2.25304 93.6076 2.81238V18.4423C93.6076 18.8122 93.6392 19.128 93.7023 19.3896C93.7745 19.6512 93.8918 19.8723 94.0542 20.0527C94.2165 20.2331 94.4331 20.382 94.7037 20.4993C94.9834 20.6075 95.3307 20.6977 95.7457 20.7699L95.6239 21.0947C95.0826 21.0225 94.6135 20.9684 94.2165 20.9323C93.8196 20.8962 93.4858 20.8782 93.2151 20.8782C92.9625 20.8782 92.6784 20.8962 92.3626 20.9323C92.0559 20.9684 91.713 21.0225 91.3341 21.0947L91.2529 20.9594C91.4334 20.6977 91.5236 20.2196 91.5236 19.5249V18.4153C90.035 19.4798 88.6863 20.2512 87.4774 20.7293C86.2775 21.1984 85.1543 21.433 84.1078 21.433C83.4853 21.433 82.8628 21.3608 82.2403 21.2165C81.6178 21.0721 81.0585 20.824 80.5623 20.4722C80.0661 20.1204 79.6602 19.6557 79.3444 19.0784C79.0377 18.492 78.8843 17.7612 78.8843 16.8861V5.30235C78.8843 4.70692 78.8572 4.21073 78.8031 3.81378C78.749 3.40781 78.6497 3.08303 78.5054 2.83944C78.361 2.59586 78.1581 2.42445 77.8964 2.32521C77.6348 2.21695 77.3551 2.16282 77.0574 2.16282C76.7597 2.16282 76.5748 2.16733 76.5026 2.17636L76.4485 1.91924C77.919 1.47718 79.3354 1.25615 80.6976 1.25615C80.8781 1.77038 80.9683 2.28913 80.9683 2.81238ZM116.383 20.8782H115.828C115.214 20.0482 113.455 17.8018 110.55 14.139C107.645 10.4672 105.57 7.81036 104.325 6.16842C103.784 5.46474 103.265 4.63926 102.769 3.69199L102.688 3.74612V19.1325C102.688 19.4753 102.796 19.7414 103.013 19.9309C103.238 20.1204 103.482 20.2512 103.743 20.3233C104.014 20.3865 104.384 20.4587 104.853 20.5399C105.322 20.6211 105.597 20.6707 105.679 20.6887V20.9594C103.973 20.8511 102.607 20.8511 101.578 20.9594C101.524 20.7158 101.497 20.4767 101.497 20.2421V4.66632C101.47 4.02579 101.357 3.45291 101.159 2.9477C100.897 2.24402 100.297 1.92826 99.3589 2.00043V1.72979C100.622 1.41403 101.862 1.25615 103.08 1.25615L113.27 14.2879C113.748 14.8923 114.127 15.4381 114.407 15.9253C114.696 16.4035 114.975 17.0034 115.246 17.7251V3.63786C115.246 3.00634 115.007 2.55977 114.529 2.29815C114.06 2.0275 113.32 1.92826 112.309 2.00043L112.242 1.72979C113.415 1.44109 114.718 1.28322 116.153 1.25615C116.306 1.49071 116.383 1.72979 116.383 1.97337V20.8782ZM125.747 20.0527L130.511 19.9038C131.169 19.8858 131.724 19.8091 132.175 19.6738C132.626 19.5385 133.014 19.349 133.339 19.1054C133.664 18.8528 133.948 18.5461 134.191 18.1852C134.435 17.8153 134.679 17.3913 134.922 16.9132L135.315 17.0756L133.975 20.6887L133.758 20.8782H123.92C123.749 20.5083 123.663 20.0662 123.663 19.552V5.16702C123.663 4.5716 123.636 4.08443 123.582 3.70552C123.528 3.31759 123.429 3.01086 123.284 2.78532C123.14 2.55075 122.937 2.38836 122.675 2.29815C122.423 2.20793 122.093 2.16282 121.687 2.16282C121.624 2.16282 121.557 2.16282 121.484 2.16282C121.421 2.16282 121.354 2.16733 121.281 2.17636L121.227 1.78392C123.798 1.37794 126.631 1.17496 129.726 1.17496C131.304 1.17496 132.96 1.22909 134.692 1.33735L134.787 1.5674L133.501 4.93697L133.068 4.80165C133.14 4.45883 133.194 4.14307 133.231 3.85438C133.267 3.56569 133.285 3.28601 133.285 3.01537C133.285 2.7357 133.249 2.47407 133.176 2.23049C132.5 2.16733 131.832 2.12223 131.174 2.09516C130.524 2.05907 129.874 2.04103 129.225 2.04103C128.043 2.04103 126.884 2.09516 125.747 2.20342V9.84924L133.149 9.44327L133.285 9.59213L132.649 10.7018C132.243 10.6837 131.832 10.6702 131.417 10.6612C131.002 10.6522 130.578 10.6477 130.145 10.6477C129.441 10.6477 128.724 10.6612 127.993 10.6883C127.263 10.7153 126.514 10.7514 125.747 10.7965V20.0527Z" fill="#5B5D67"/>
</svg>
