<svg width="117" height="29" viewBox="0 0 117 29" fill="none" xmlns="http://www.w3.org/2000/svg">
<path d="M0.269829 27.3782V1.65919H11.023C12.8214 1.65919 14.3734 1.99177 15.679 2.65691C17.1818 3.4206 18.3766 4.51686 19.2634 5.94569C20.1503 7.34989 20.5937 8.9019 20.5937 10.6017C20.5937 12.3015 20.1503 13.8659 19.2634 15.2947C18.4012 16.7235 17.2187 17.8198 15.716 18.5835C14.435 19.2486 12.8706 19.5812 11.023 19.5812H6.99519V27.3782H0.269829ZM27.8451 8.16284V1.65919H44.4737V8.16284H36.8246V20.8745H44.4737V27.3782H27.8451V20.8745H35.4943V8.16284H27.8451ZM52.7967 11.6733C52.7967 9.7518 53.2771 7.96576 54.2379 6.31521C55.1986 4.66467 56.492 3.35901 58.1179 2.39824C59.7684 1.43748 61.5668 0.957095 63.513 0.957095C65.4591 0.957095 67.2452 1.43748 68.8711 2.39824C70.5216 3.35901 71.8273 4.66467 72.7881 6.31521C73.7488 7.96576 74.2292 9.7518 74.2292 11.6733V17.364C74.2292 19.2856 73.7488 21.0716 72.7881 22.7222C71.8273 24.3727 70.5216 25.6784 68.8711 26.6391C67.2452 27.5999 65.4591 28.0803 63.513 28.0803C61.5668 28.0803 59.7684 27.5999 58.1179 26.6391C56.492 25.6784 55.1986 24.3727 54.2379 22.7222C53.2771 21.0716 52.7967 19.2856 52.7967 17.364V11.6733ZM59.5221 17.364C59.5221 18.5465 59.8916 19.5565 60.6307 20.3941C61.3697 21.2317 62.3305 21.6505 63.513 21.6505C64.6708 21.6505 65.6193 21.2317 66.3583 20.3941C67.0974 19.5565 67.4669 18.5465 67.4669 17.364V11.6364C67.4669 10.4293 67.0974 9.41923 66.3583 8.60627C65.6193 7.79332 64.6708 7.38684 63.513 7.38684C62.3305 7.38684 61.3697 7.79332 60.6307 8.60627C59.8916 9.41923 59.5221 10.4293 59.5221 11.6364V17.364ZM83.901 14.5187C84.8371 14.5187 85.6993 14.7527 86.4876 15.2208C87.2883 15.6888 87.9226 16.3232 88.3907 17.1238C88.8588 17.9122 89.0928 18.7744 89.0928 19.7105V22.1863C89.0928 23.1225 88.8588 23.9909 88.3907 24.7915C87.9226 25.5798 87.2883 26.208 86.4876 26.6761C85.6993 27.1441 84.8371 27.3782 83.901 27.3782H79.1526V14.5187H83.901ZM88.4092 19.7105C88.4092 18.8976 88.2059 18.1462 87.7995 17.4564C87.393 16.7666 86.8387 16.2185 86.1366 15.812C85.4468 15.4055 84.6954 15.2023 83.8825 15.2023H79.8362V26.6946H83.8825C84.6954 26.6946 85.4468 26.4913 86.1366 26.0848C86.8387 25.6784 87.393 25.1302 87.7995 24.4404C88.2059 23.7507 88.4092 22.9993 88.4092 22.1863V19.7105ZM97.356 14.5187H98.0766L103.361 27.3782H102.622L100.885 23.1286H94.5476L92.7924 27.3782H92.0718L97.356 14.5187ZM94.8248 22.4635H100.608L97.7071 15.4055L94.8248 22.4635ZM106.839 14.5187L111.402 21.3919L115.929 14.5187H116.742L111.735 22.1124V27.3782H111.051V22.1124L106.026 14.5187H106.839Z" fill="#5B5D67"/>
</svg>
