<svg width="127" height="76" viewBox="0 0 127 76" fill="none" xmlns="http://www.w3.org/2000/svg">
<path d="M41.3364 0.618896L59.9313 32.8261H22.7416L41.3364 0.618896Z" fill="#5B5D67"/>
<path d="M22.3911 32.1948L40.986 64.402H3.79631L22.3911 32.1948Z" fill="#5B5D67"/>
<path d="M60.2818 32.1948L78.8766 64.402H41.6869L60.2818 32.1948Z" fill="#5B5D67"/>
<path d="M86.0398 36.0271L84.4693 36.4336L87.4255 42.4754L90.0676 36.4336L88.5526 36.0271C88.5526 35.6576 88.6449 35.4729 88.8297 35.4729L90.7512 35.5468L92.1924 35.4729C92.3772 35.4852 92.4695 35.6699 92.4695 36.0271L91.2686 36.4336L87.9798 43.2514V47.4455L89.9198 47.852C89.9198 48.2215 89.8274 48.4062 89.6427 48.4062C89.2362 48.4062 88.4602 48.3816 87.3147 48.3323L84.8758 48.4062C84.691 48.4062 84.5986 48.2215 84.5986 47.852L86.5387 47.4455V43.2883L82.9543 36.4336L81.7533 36.0271C81.7533 35.6576 81.8457 35.4729 82.0304 35.4729C82.1536 35.4729 82.751 35.4975 83.8226 35.5468L85.7626 35.4729C85.9474 35.4729 86.0398 35.6576 86.0398 36.0271ZM99.4365 35.2511C101.223 35.2511 102.682 35.8116 103.815 36.9325C104.961 38.0411 105.534 39.6793 105.534 41.8472C105.534 44.0151 104.955 45.6902 103.797 46.8727C102.639 48.0429 101.13 48.628 99.2703 48.628C97.4226 48.628 95.9507 48.049 94.8544 46.8912C93.7582 45.7333 93.21 44.089 93.21 41.958C93.21 39.8148 93.8013 38.1642 94.9838 37.0064C96.1662 35.8362 97.6505 35.2511 99.4365 35.2511ZM94.8359 41.9026C94.8359 43.7872 95.2547 45.2345 96.0923 46.2445C96.9299 47.2422 98.02 47.7411 99.3626 47.7411C100.718 47.7411 101.814 47.2422 102.651 46.2445C103.489 45.2345 103.908 43.8057 103.908 41.958C103.908 40.0981 103.489 38.6816 102.651 37.7085C101.814 36.7354 100.718 36.2489 99.3626 36.2489C98.4758 36.2489 97.5889 36.3967 96.702 36.6923C96.1231 37.1234 95.6674 37.807 95.3348 38.7432C95.0022 39.667 94.8359 40.7201 94.8359 41.9026ZM111.281 35.4729C111.478 35.4729 111.577 35.6576 111.577 36.0271L109.822 36.4336V44.4339C109.822 45.4069 110.105 46.1829 110.671 46.7619C111.25 47.3285 112.125 47.6118 113.295 47.6118C114.478 47.6118 115.371 47.3038 115.974 46.688C116.59 46.0721 116.898 45.3146 116.898 44.4154V36.4336L115.143 36.0271C115.143 35.6576 115.241 35.4729 115.438 35.4729L117.452 35.5468L118.893 35.4729C119.078 35.4729 119.171 35.6576 119.171 36.0271L117.97 36.4336V44.3784C117.97 45.6594 117.551 46.688 116.713 47.464C115.888 48.24 114.749 48.628 113.295 48.628C110.019 48.628 108.38 47.2115 108.38 44.3784V36.4336L107.013 36.0456C107.013 35.6638 107.105 35.4729 107.29 35.4729C107.376 35.4729 107.999 35.4975 109.156 35.5468L111.281 35.4729Z" fill="#5B5D67"/>
</svg>
