<svg width="80" height="36" viewBox="0 0 80 36" fill="none" xmlns="http://www.w3.org/2000/svg">
<path d="M5.83234 35.3782L0.289458 0.846009H3.89233L7.60606 24.1815L13.1489 3.39574H14.3684L19.9667 24.2924L23.1261 0.846009H26.3964L20.909 35.3782H19.4124L13.4815 12.8186L7.43978 35.3782H5.83234ZM40.7525 35.9325C36.2812 35.9325 32.6784 34.4728 29.9439 31.5536L31.9393 28.0616L32.161 27.5627L32.549 27.7844C32.6229 28.0431 32.7153 28.3387 32.8262 28.6713C32.937 28.9669 33.1957 29.3364 33.6022 29.7799C34.563 30.5928 35.6715 31.2395 36.9279 31.7199C38.2213 32.2003 39.6809 32.4404 41.3068 32.4404C43.3761 32.4404 45.076 31.8677 46.4062 30.7222C47.7735 29.5397 48.4571 28.1355 48.4571 26.5096C48.4571 25.4379 48.2354 24.5326 47.792 23.7935C47.3855 23.0545 46.6095 22.3339 45.464 21.6318C44.3554 20.9297 42.711 20.1168 40.5308 19.193C36.9464 17.7888 34.4706 16.2183 33.1033 14.4815C31.7361 12.7447 31.0525 10.8971 31.0525 8.93862C31.0525 6.38889 31.9948 4.33803 33.8793 2.78602C35.7639 1.19706 38.3321 0.402578 41.5839 0.402578C43.4685 0.402578 45.2422 0.79058 46.9051 1.56658C48.568 2.30564 49.9906 3.35878 51.1731 4.72603L48.6788 8.05176L48.3463 7.83004C48.3093 7.53442 48.2354 7.2388 48.1245 6.94318C48.0137 6.64756 47.755 6.27803 47.3485 5.8346C46.4617 4.98469 45.5194 4.41193 44.5217 4.11631C43.5239 3.78374 42.3415 3.61745 40.9742 3.61745C39.1635 3.61745 37.7224 4.11631 36.6508 5.11403C35.5791 6.11175 35.0433 7.29423 35.0433 8.66148C35.0433 9.69615 35.2651 10.62 35.7085 11.4329C36.1889 12.2089 37.0388 12.9849 38.2582 13.7609C39.4776 14.5369 41.2514 15.3868 43.5794 16.3107C45.8335 17.2345 47.5887 18.1768 48.8451 19.1375C50.1015 20.0613 50.9884 21.0775 51.5057 22.1861C52.023 23.2577 52.2817 24.5141 52.2817 25.9553C52.2817 27.5442 51.8752 29.1147 51.0623 30.6667C50.2863 32.1818 49.0484 33.4382 47.3485 34.4359C45.6487 35.4336 43.45 35.9325 40.7525 35.9325ZM58.4343 0.846009H62.9795V1.23401C62.7578 1.45573 62.6099 1.69592 62.536 1.95459C62.4991 2.21325 62.4806 2.65668 62.4806 3.28488V32.0524H79.1093V35.3782H58.4343V0.846009Z" fill="#5B5D67"/>
</svg>
