<svg width="161" height="71" viewBox="0 0 161 71" fill="none" xmlns="http://www.w3.org/2000/svg">
<circle cx="25.4049" cy="35.5206" r="25.4049" fill="#5B5D67"/>
<path d="M74.922 7.72223H79.7838V20.7232C79.7838 22.2257 79.4262 23.5347 78.7111 24.6501C77.9959 25.7589 76.9986 26.6184 75.7192 27.2286C74.4398 27.8322 72.9536 28.1341 71.2609 28.1341C69.5484 28.1341 68.0524 27.8322 66.773 27.2286C65.4936 26.6184 64.4996 25.7589 63.791 24.6501C63.0824 23.5347 62.728 22.2257 62.728 20.7232V7.72223H67.5997V20.3C67.5997 20.9955 67.7506 21.6155 68.0524 22.1601C68.3608 22.7047 68.7906 23.1312 69.3417 23.4395C69.8929 23.7479 70.5326 23.9021 71.2609 23.9021C71.9892 23.9021 72.6256 23.7479 73.1702 23.4395C73.7213 23.1312 74.1511 22.7047 74.4594 22.1601C74.7678 21.6155 74.922 20.9955 74.922 20.3V7.72223ZM82.8372 27.8782V7.72223H87.7089V16.2452H87.9746L94.6375 7.72223H100.375L93.2301 16.7176L100.503 27.8782H94.6769L89.6576 19.9556L87.7089 22.416V27.8782H82.8372ZM62.0687 46.6786V42.7222H79.1048V46.6786H72.993V62.8782H68.1902V46.6786H62.0687ZM99.5879 52.8002C99.5879 55.0179 99.1615 56.8977 98.3085 58.4395C97.4555 59.9814 96.3008 61.1526 94.8442 61.953C93.3942 62.7535 91.767 63.1537 89.9627 63.1537C88.1518 63.1537 86.5213 62.7502 85.0713 61.9432C83.6213 61.1362 82.4698 59.965 81.6169 58.4297C80.7705 56.8878 80.3473 55.0113 80.3473 52.8002C80.3473 50.5825 80.7705 48.7027 81.6169 47.1609C82.4698 45.619 83.6213 44.4478 85.0713 43.6474C86.5213 42.8469 88.1518 42.4467 89.9627 42.4467C91.767 42.4467 93.3942 42.8469 94.8442 43.6474C96.3008 44.4478 97.4555 45.619 98.3085 47.1609C99.1615 48.7027 99.5879 50.5825 99.5879 52.8002ZM94.608 52.8002C94.608 51.488 94.421 50.3791 94.047 49.4737C93.6796 48.5682 93.1481 47.8826 92.4526 47.4168C91.7637 46.9509 90.9337 46.718 89.9627 46.718C88.9982 46.718 88.1682 46.9509 87.4727 47.4168C86.7772 47.8826 86.2425 48.5682 85.8685 49.4737C85.5011 50.3791 85.3174 51.488 85.3174 52.8002C85.3174 54.1124 85.5011 55.2213 85.8685 56.1267C86.2425 57.0322 86.7772 57.7178 87.4727 58.1837C88.1682 58.6495 88.9982 58.8824 89.9627 58.8824C90.9337 58.8824 91.7637 58.6495 92.4526 58.1837C93.1481 57.7178 93.6796 57.0322 94.047 56.1267C94.421 55.2213 94.608 54.1124 94.608 52.8002ZM109.882 62.8782H102.432V42.7222H109.873C111.926 42.7222 113.694 43.1257 115.177 43.9328C116.667 44.7332 117.815 45.888 118.622 47.3971C119.429 48.8996 119.832 50.6973 119.832 52.7904C119.832 54.8899 119.429 56.6943 118.622 58.2033C117.821 59.7124 116.677 60.8705 115.187 61.6775C113.698 62.4779 111.93 62.8782 109.882 62.8782ZM107.304 58.7249H109.695C110.824 58.7249 111.779 58.5347 112.559 58.1541C113.347 57.767 113.941 57.1404 114.341 56.2743C114.748 55.4017 114.951 54.2404 114.951 52.7904C114.951 51.3403 114.748 50.1856 114.341 49.3261C113.934 48.46 113.334 47.8367 112.54 47.4561C111.752 47.069 110.781 46.8755 109.627 46.8755H107.304V58.7249ZM125.846 62.8782H120.61L127.411 42.7222H133.896L140.697 62.8782H135.461L130.727 47.8006H130.57L125.846 62.8782ZM125.147 54.9457H136.091V58.6462H125.147V54.9457ZM139.806 42.7222H145.249L149.51 51.1566H149.687L153.949 42.7222H159.391L152.02 56.1464V62.8782H147.178V56.1464L139.806 42.7222Z" fill="#5B5D67"/>
</svg>
