<svg width="69" height="59" viewBox="0 0 69 59" fill="none" xmlns="http://www.w3.org/2000/svg">
<path fill-rule="evenodd" clip-rule="evenodd" d="M0.819557 49.1776C10.9626 44.161 16.0341 38.2666 16.0341 31.4941C11.7108 30.9925 8.13585 29.2158 5.30909 26.164C2.48233 23.1122 1.06898 19.5797 1.06898 15.5664C1.06898 11.3023 2.44077 7.70709 5.18438 4.78072C7.928 1.85436 11.3783 0.391197 15.5353 0.391197C20.1911 0.391197 24.2233 2.29331 27.632 6.09758C31.0408 9.90186 32.7451 14.5213 32.7451 19.9559C32.7451 36.26 23.683 49.0104 5.55851 58.2075L0.819557 49.1776ZM36.6149 49.1776C46.8411 44.161 51.9541 38.2666 51.9541 31.4941C47.5477 30.9925 43.9312 29.2158 41.1044 26.164C38.2777 23.1122 36.8643 19.5797 36.8643 15.5664C36.8643 11.3023 38.2569 7.70709 41.0421 4.78072C43.8273 1.85436 47.2983 0.391197 51.4553 0.391197C56.1111 0.391197 60.1226 2.29331 63.4897 6.09758C66.8569 9.90186 68.5405 14.5213 68.5405 19.9559C68.5405 36.26 59.5199 49.0104 41.4786 58.2075L36.6149 49.1776Z" fill="#F9BAE4"/>
</svg>
