<svg width="50" height="50" viewBox="0 0 50 50" fill="none" xmlns="http://www.w3.org/2000/svg">
<rect x="0.328125" y="0.328125" width="49.2188" height="48.5625" rx="6.23438" fill="#435770" stroke="white" stroke-width="0.65625"/>
<path d="M34.1636 23.4858C35.6948 24.8157 39.375 28.3751 39.375 32.3257C39.375 35.018 38.307 37.1106 36.7371 38.6622C34.5625 40.6831 31.0367 41.6218 25.9411 41.6218C23.1617 41.6218 21.3603 41.5327 20.0156 41.3437L19.6875 28.8749" fill="#B1AFF6"/>
<path d="M34.1636 23.4858C35.6948 24.8157 39.375 28.3751 39.375 32.3257C39.375 35.018 38.307 37.1106 36.7371 38.6622C34.5625 40.6831 31.0367 41.6218 25.9411 41.6218C23.1617 41.6218 21.3603 41.5327 20.0156 41.3437L19.6875 28.8749" stroke="white" stroke-width="0.984375" stroke-miterlimit="10"/>
<path d="M16.7163 41.2746C17.7121 41.3542 18.6674 41.394 19.5688 41.4072L20.0697 41.4146L20.0682 40.9136C20.0617 38.7652 20.0567 36.6184 20.0518 34.4713L20.0518 34.4696C20.0473 32.5234 20.0429 30.5771 20.0372 28.6295C20.9008 28.7719 21.8629 28.8007 22.8507 28.8007C26.9474 28.8007 30.6424 27.5976 32.9393 25.1502C34.6449 23.387 35.5295 20.9394 35.5295 18.0054C35.5295 15.0482 34.4388 12.5898 32.5737 10.9752C30.5508 9.1588 26.862 8.20239 22.7694 8.06349C19.2554 7.93847 17.1125 7.95218 14.376 8.37266L13.9585 8.4368L13.9585 8.85913L13.9585 9.21819V9.2182V40.5476V40.9816L14.3891 41.0359C15.1223 41.1284 15.905 41.2147 16.7163 41.2746ZM16.7163 41.2746C16.7168 41.2746 16.7174 41.2746 16.7179 41.2747L16.7542 40.7838L16.7149 41.2744C16.7154 41.2745 16.7158 41.2745 16.7163 41.2746ZM19.576 40.9151L19.0838 40.9166C19.0838 40.9128 19.0838 40.909 19.0838 40.9052C19.2496 40.9094 19.4137 40.9127 19.576 40.9151ZM19.576 40.9151L19.5833 40.4229C19.5804 40.4229 19.5775 40.4228 19.5746 40.4228C19.575 40.5869 19.5755 40.751 19.576 40.9151ZM19.5432 28.0263C19.5437 28.1952 19.5442 28.364 19.5447 28.5329L20.0357 28.1301C19.8665 28.1004 19.7022 28.0661 19.5432 28.0263Z" fill="#FFA9DC" stroke="white" stroke-width="0.984375" stroke-miterlimit="10"/>
</svg>
